Coordinates
version=1
nRows=8
nColumns=63
inDegrees=yes

Units are S.I. units (second, meters, Newtons, ...)
If the header above contains a line with 'inDegrees', this indicates whether rotational values are in degrees (yes) or radians (no).

endheader
time	pelvis_tilt	pelvis_list	pelvis_rotation	pelvis_tx	pelvis_ty	pelvis_tz	hip_flexion_r	hip_adduction_r	hip_rotation_r	knee_angle_r	knee_angle_r_beta	ankle_angle_r	subtalar_angle_r	mtp_angle_r	hip_flexion_l	hip_adduction_l	hip_rotation_l	knee_angle_l	knee_angle_l_beta	ankle_angle_l	subtalar_angle_l	mtp_angle_l	L5_S1_Flex_Ext	L5_S1_Lat_Bending	L5_S1_axial_rotation	L4_L5_Flex_Ext	L4_L5_Lat_Bending	L4_L5_axial_rotation	L3_L4_Flex_Ext	L3_L4_Lat_Bending	L3_L4_axial_rotation	L2_L3_Flex_Ext	L2_L3_Lat_Bending	L2_L3_axial_rotation	L1_L2_Flex_Ext	L1_L2_Lat_Bending	L1_L2_axial_rotation	L1_T12_Flex_Ext	L1_T12_Lat_Bending	L1_T12_axial_rotation	Abs_r3	Abs_r2	Abs_r1	Abs_t1	Abs_t2	neck_flexion	neck_bending	neck_rotation	arm_flex_r	arm_add_r	arm_rot_r	elbow_flex_r	pro_sup_r	wrist_flex_r	wrist_dev_r	arm_flex_l	arm_add_l	arm_rot_l	elbow_flex_l	pro_sup_l	wrist_flex_l	wrist_dev_l
8.237288	0.961358	-6.071944	88.702318	0.151607	0.906332	0.470227	-0.170514	-0.457186	-28.933938	13.559564	0.236659	31.029762	12.914010	0.000000	-2.311836	-2.275663	3.274061	1.000773	0.017467	32.337746	2.187088	0.000000	0.085299	0.323043	-1.339127	0.158408	0.429647	-1.422822	0.140137	0.785447	-1.422822	0.097488	0.785447	-1.171736	0.079208	0.658749	-1.088040	0.048740	0.500394	-1.004345	0.609279	3.654326	-7.447820	0.000000	0.000000	27.035459	-0.047707	0.802471	16.775932	-12.036420	94.403215	25.707169	41.226498	3.871137	-4.855250	2.619075	-9.411529	37.430084	38.940445	87.327453	3.400256	18.395050
8.254237	0.895887	-6.042081	88.565951	0.151695	0.906432	0.470022	-0.209427	-0.535975	-28.832957	13.633528	0.237950	30.891605	12.886697	0.000000	-2.381088	-2.194616	3.365784	0.960539	0.016765	32.081519	1.777220	0.000000	0.083480	0.316404	-1.312968	0.155031	0.420817	-1.395029	0.137150	0.769305	-1.395029	0.095410	0.769305	-1.148847	0.077520	0.645211	-1.066787	0.047701	0.490110	-0.984726	0.596291	3.579226	-7.302336	0.000000	0.000000	26.996929	-0.211467	0.731333	16.629064	-12.036712	93.857128	25.670763	41.823511	3.869401	-4.851141	2.712013	-9.439844	37.706531	38.867737	87.338016	3.489381	18.368122
8.271186	0.837701	-6.020815	88.462789	0.151736	0.906529	0.469870	-0.236068	-0.616409	-28.843952	13.700575	0.239120	30.772429	12.963721	0.000000	-2.429981	-2.118716	3.609506	0.921437	0.016082	31.753446	1.170826	0.000000	0.082060	0.311019	-1.290497	0.152393	0.413655	-1.371153	0.134816	0.756211	-1.371153	0.093786	0.756211	-1.129185	0.076201	0.634230	-1.048529	0.046889	0.481768	-0.967873	0.586145	3.518308	-7.177357	0.000000	0.000000	26.951222	-0.399749	0.698274	16.542662	-12.029211	93.676891	25.640146	41.869770	3.873876	-4.960041	2.848615	-9.472821	38.154534	38.729840	87.383677	3.513761	18.206978
8.288136	0.790349	-6.005789	88.391988	0.151737	0.906620	0.469765	-0.252650	-0.685863	-28.882541	13.752413	0.240025	30.665949	13.054170	0.000000	-2.462336	-2.051383	3.984515	0.886317	0.015469	31.368450	0.376555	0.000000	0.080439	0.307144	-1.272548	0.149383	0.408502	-1.352082	0.132153	0.746791	-1.352082	0.091933	0.746791	-1.113479	0.074695	0.626329	-1.033945	0.045963	0.475767	-0.954411	0.574566	3.474478	-7.077528	0.000000	0.000000	26.902619	-0.588946	0.696388	16.516295	-12.021629	93.820467	25.633594	41.410930	3.889813	-5.149605	3.021040	-9.517312	38.775102	38.550230	87.444228	3.422380	17.940747
8.305085	0.750542	-5.999948	88.353389	0.151722	0.906694	0.469694	-0.260051	-0.750142	-28.996185	13.791429	0.240706	30.569336	13.199455	0.000000	-2.479320	-1.990846	4.545011	0.853611	0.014898	30.945381	-0.660530	0.000000	0.079355	0.304095	-1.261596	0.147369	0.404446	-1.340446	0.130372	0.739376	-1.340446	0.090694	0.739376	-1.103896	0.073689	0.620110	-1.025047	0.045343	0.471043	-0.946197	0.566822	3.439979	-7.016618	0.000000	0.000000	26.859461	-0.753434	0.725952	16.525655	-12.009177	94.150347	25.646717	40.617144	3.909722	-5.337386	3.181343	-9.560140	39.393044	38.352431	87.520785	3.262921	17.611084
8.322034	0.719184	-5.998021	88.313506	0.151721	0.906749	0.469654	-0.253896	-0.796975	-29.018696	13.823091	0.241258	30.476767	13.235318	0.000000	-2.487427	-1.938651	4.944155	0.832624	0.014532	30.591004	-1.502224	0.000000	0.078694	0.301952	-1.249188	0.146142	0.401596	-1.327263	0.129286	0.734165	-1.327263	0.089939	0.734165	-1.093040	0.073075	0.615740	-1.014966	0.044966	0.467723	-0.936891	0.562102	3.415736	-6.947611	0.000000	0.000000	26.823805	-0.889171	0.755134	16.548239	-11.993218	94.601174	25.647003	39.589818	3.992335	-5.538624	3.356393	-9.607383	40.069640	38.136347	87.591110	3.046466	17.244403
8.338983	0.698160	-5.999044	88.304666	0.151692	0.906772	0.469633	-0.247666	-0.830578	-29.059171	13.843684	0.241618	30.398222	13.261524	0.000000	-2.486129	-1.896883	5.376424	0.819670	0.014306	30.265635	-2.358418	0.000000	0.078740	0.300887	-1.246038	0.146228	0.400180	-1.323915	0.129362	0.731578	-1.323915	0.089992	0.731578	-1.090283	0.073118	0.613570	-1.012406	0.044992	0.466075	-0.934529	0.562432	3.403698	-6.930090	0.000000	0.000000	26.805467	-0.972902	0.808726	16.585711	-11.971128	95.144638	25.642866	38.446293	4.092401	-5.730785	3.484475	-9.642354	40.589475	37.950675	87.648173	2.833509	16.914744
8.355932	0.686693	-6.002709	88.344236	0.151602	0.906757	0.469621	-0.248313	-0.856443	-29.188341	13.853157	0.241783	30.353043	13.350718	0.000000	-2.476369	-1.862300	5.985892	0.809733	0.014133	29.957136	-3.377129	0.000000	0.079794	0.301029	-1.255940	0.148186	0.400369	-1.334436	0.131094	0.731923	-1.334436	0.091197	0.731923	-1.098947	0.074097	0.613859	-1.020451	0.045595	0.466295	-0.941955	0.569964	3.405304	-6.985159	0.000000	0.000000	26.805646	-1.020451	0.875282	16.624485	-11.947653	95.723847	25.633757	37.289064	4.168211	-5.926055	3.555756	-9.668281	40.935412	37.821271	87.682371	2.613117	16.655614
